<?xml version="1.0" encoding="UTF-8"?>
<svg id="Layer_2" data-name="Layer 2" xmlns="http://www.w3.org/2000/svg" viewBox="0 0 111 111">
  <defs>
    <style>
      .cls-1 {
        fill: #000;
      }

      .cls-2 {
        fill: #FFE4B5;
      }
    </style>
  </defs>
  <g id="Layer_1-2" data-name="Layer 1">
    <g>
      <circle class="cls-2" cx="55.5" cy="55.5" r="55.5"/>
      <path class="cls-1" d="M81.31,65.83c4.01,4.01,4.01,10.52,0,14.53l-1.52,1.52c-4.02,4.01-10.52,4.01-14.54,0l-9-9-9,9c-4.01,4.01-10.52,4.01-14.53,0l-1.52-1.52c-4.01-4.01-4.01-10.52,0-14.53l9-9-9-9c-4.01-4.01-4.01-10.52,0-14.53l1.52-1.52c4.01-4.02,10.52-4.02,14.53,0l9,9,9-9c4.02-4.02,10.52-4.02,14.54,0l1.52,1.52c4.01,4.01,4.01,10.52,0,14.53l-9,9,9,9Z"/>
    </g>
  </g>
</svg>